<?xml version="1.0" encoding="UTF-8" standalone="no"?>
<svg width="21px" height="18px" viewBox="0 0 21 18" version="1.1" xmlns="http://www.w3.org/2000/svg" xmlns:xlink="http://www.w3.org/1999/xlink" xmlns:sketch="http://www.bohemiancoding.com/sketch/ns">
    <!-- Generator: Sketch Beta 3.1.1 (8761) - http://www.bohemiancoding.com/sketch -->
    <title>Shape</title>
    <desc>Created with Sketch Beta.</desc>
    <defs></defs>
    <g id="Page-1" stroke="none" stroke-width="1" fill="none" fill-rule="evenodd" sketch:type="MSPage">
        <path d="M9.85543511,0.230148379 C9.53935771,-0.0767161263 9.02552933,-0.0767161263 8.70945193,0.230148379 L0.237361969,8.4443729 C-0.0791206565,8.7512374 -0.0791206565,9.24866437 0.237361969,9.55552888 L8.7090467,17.7697534 C8.8670854,17.9233821 9.07456185,18 9.28203829,18 C9.48951474,18 9.69699119,17.9233821 9.85502989,17.7697534 C10.1715125,17.4628889 10.1715125,16.9654619 9.85502989,16.6585974 L2.80528822,9.82270924 L20.1895451,9.82270924 C20.6369162,9.82270924 21,9.47065982 21,9.03688464 C21,8.60310946 20.6369162,8.25106004 20.1895451,8.25106004 L2.72910546,8.25106004 L9.85502989,1.34130436 C10.1719177,1.03443985 10.1719177,0.537012884 9.85543511,0.230148379 L9.85543511,0.230148379 Z" id="Shape" fill="#FFFFFF" sketch:type="MSShapeGroup"></path>
    </g>
</svg>