<?xml version="1.0" encoding="UTF-8" standalone="no"?>
<svg width="1025px" height="167px" viewBox="0 0 1025 167" version="1.1" xmlns="http://www.w3.org/2000/svg" xmlns:xlink="http://www.w3.org/1999/xlink" xmlns:sketch="http://www.bohemiancoding.com/sketch/ns">
    <!-- Generator: Sketch Beta 3.1.1 (8761) - http://www.bohemiancoding.com/sketch -->
    <title>birds</title>
    <desc>Created with Sketch Beta.</desc>
    <defs></defs>
    <g id="Page-1" stroke="none" stroke-width="1" fill="none" fill-rule="evenodd" sketch:type="MSPage">
        <g id="birds" sketch:type="MSLayerGroup" transform="translate(1.000000, 0.000000)" fill="#FFFFFF">
            <path d="M1023.47612,123.909577 C1021.28053,123.082147 1019.09064,122.337404 1016.88363,121.819618 C1014.69374,121.272751 1012.46963,120.964817 1010.37098,121.038379 C1009.32166,121.089701 1008.31796,121.280734 1007.4055,121.577833 C1006.94357,121.7318 1006.50445,121.911428 1006.11096,122.161197 C1005.70035,122.379602 1005.33537,122.670999 1004.9932,122.968668 C1004.65103,123.280023 1004.33737,123.614189 1004.04082,123.980858 C1003.77279,124.370337 1003.47624,124.737007 1003.26523,125.190354 C1003.02572,125.610056 1002.83752,126.079941 1002.65503,126.553247 C1002.46113,127.019139 1002.35278,127.542056 1002.1931,128.030189 L1002.17029,128.094627 C1001.85093,129.085147 1000.7959,129.624602 999.815012,129.294428 C999.244728,129.101685 998.817014,128.640924 998.634523,128.098048 C998.309461,127.104106 997.972993,126.107313 997.46544,125.258213 C996.997806,124.37547 996.393304,123.621602 995.691854,123.001172 C994.337428,121.702147 992.444653,121.083999 990.362544,120.942577 C989.324055,120.869585 988.249639,120.950561 987.162106,121.074875 C986.070581,121.196337 984.976205,121.427288 983.88525,121.711271 C982.78346,121.970164 981.696497,122.318585 980.601551,122.682404 C979.512307,123.058197 978.41736,123.454519 977.333819,123.909577 C979.090867,122.315164 981.115377,121.045792 983.268202,119.976007 C985.437565,118.954123 987.793411,118.161478 990.35513,118.010932 C990.992138,117.965313 991.643403,117.98185 992.299801,118.021767 C992.957339,118.084494 993.613737,118.2128 994.270134,118.389007 C994.916267,118.586883 995.566391,118.818404 996.182299,119.141164 C996.798206,119.45309 997.402708,119.82204 997.938776,120.265693 C998.503358,120.680263 998.953883,121.208883 999.427219,121.716974 C999.832121,122.263842 1000.27124,122.803296 1000.5849,123.394073 C1001.29775,124.545974 1001.75968,125.775428 1002.17599,127.000891 L998.617415,127.06704 C998.82842,126.444899 998.982397,125.815916 999.244728,125.202899 C999.495653,124.586461 999.763687,123.974015 1000.11726,123.384949 C1000.42522,122.782767 1000.86434,122.227346 1001.28064,121.678767 C1001.73117,121.142734 1002.22161,120.638635 1002.7919,120.210949 C1003.35078,119.790676 1003.94958,119.401767 1004.58259,119.115503 C1005.2042,118.800156 1005.86573,118.585172 1006.51586,118.42037 C1007.82751,118.077081 1009.15628,118.010932 1010.42231,118.117569 C1012.96578,118.310313 1015.30394,119.093833 1017.47673,120.087775 C1019.63811,121.129618 1021.67973,122.361354 1023.47612,123.909577" id="Fill-234" sketch:type="MSShapeGroup"></path>
            <path d="M893.063357,6.22347404 C895.261804,5.39604428 897.445424,4.65130048 899.656418,4.13408561 C901.849163,3.58721784 904.070992,3.2787137 906.16964,3.35227569 C907.218964,3.403598 908.220954,3.59406081 909.136831,3.89173023 C909.592488,4.04569718 910.033889,4.22532527 910.428526,4.47509387 C910.840842,4.69349883 911.202972,4.98489552 911.548565,5.2819947 C911.886744,5.59392032 912.204963,5.92808561 912.498089,6.29532527 C912.769544,6.68366412 913.066093,7.05090379 913.272536,7.50425089 C913.516617,7.92452362 913.703101,8.39383767 913.884451,8.86714346 C914.076067,9.33303602 914.184421,9.85595337 914.34353,10.3440856 L914.365201,10.4085236 C914.689123,11.3990443 915.744149,11.9384988 916.721047,11.6083253 C917.298175,11.4155815 917.723037,10.9553914 917.904388,10.4125154 C918.231731,9.41743271 918.566488,8.42120957 919.072901,7.5721104 C919.545097,6.6893666 920.147318,5.93549883 920.845916,5.31563932 C922.202624,4.01661453 924.095399,3.39789552 926.176367,3.25704428 C927.214856,3.1834823 928.289272,3.26388726 929.378516,3.38877156 C930.46776,3.51023437 931.563847,3.74118478 932.653091,4.0257385 C933.756592,4.28406081 934.842414,4.63305255 935.938501,4.99573023 C937.027745,5.37209387 938.12098,5.76841618 939.206232,6.22347404 C937.447474,4.62906081 935.424674,3.35968891 933.27185,2.28990379 C931.102487,1.26801949 928.7455,0.475374861 926.184922,0.325399655 C925.546203,0.279209572 924.894938,0.295746762 924.240251,0.336234366 C923.581572,0.39839139 922.926315,0.526697176 922.269917,0.702903787 C921.620363,0.901350068 920.97252,1.13230048 920.356042,1.45506081 C919.742415,1.76698643 919.134492,2.13593684 918.602416,2.58015999 C918.034413,2.99473023 917.582177,3.52277982 917.111692,4.03144098 C916.70679,4.5777385 916.268811,5.11719304 915.954014,5.7079699 C915.241158,6.86044098 914.781509,8.08932527 914.36349,9.31478808 L917.922637,9.38093684 C917.712202,8.7593666 917.556514,8.12981288 917.293043,7.51679635 C917.043258,6.90035833 916.775224,6.28791205 916.420507,5.69884594 C916.114835,5.09723437 915.677426,4.54124263 915.259407,3.99266412 C914.806601,3.45663106 914.318438,2.95196164 913.750434,2.52484594 C913.185852,2.10457321 912.592186,1.71566412 911.955748,1.42939965 C911.336419,1.11405255 910.674319,0.899069076 910.023624,0.734267423 C908.709688,0.390978167 907.383776,0.325399655 906.117173,0.431465771 C903.577125,0.624209572 901.237247,1.40715999 899.05933,2.40167238 C896.900802,3.44408561 894.858043,4.67468065 893.063357,6.22347404" id="Fill-235" sketch:type="MSShapeGroup"></path>
            <path d="M203.847121,134.926347 C201.647533,134.098347 199.461632,133.353603 197.25463,132.836388 C195.061885,132.289521 192.836634,131.981587 190.739698,132.055149 C189.692085,132.106471 188.689524,132.296934 187.774217,132.594033 C187.316278,132.74857 186.873167,132.928198 186.47853,133.177967 C186.067925,133.396372 185.708076,133.687769 185.360772,133.984868 C185.020312,134.296793 184.705515,134.630959 184.408967,134.997628 C184.140933,135.386537 183.844385,135.753777 183.63452,136.206554 C183.392149,136.626826 183.203956,137.096711 183.024886,137.570017 C182.830989,138.035909 182.724346,138.558826 182.563526,139.046959 L182.543566,139.111397 C182.219644,140.101917 181.165188,140.641372 180.186009,140.311198 C179.610592,140.118455 179.18744,139.657694 179.004949,139.114818 C178.677606,138.120306 178.34456,137.124083 177.834155,136.274413 C177.36367,135.39224 176.759168,134.637802 176.064561,134.017942 C174.707854,132.718917 172.815079,132.100769 170.73297,131.959347 C169.69277,131.886355 168.619495,131.96676 167.532532,132.091645 C166.441577,132.212537 165.346631,132.444058 164.253965,132.728041 C163.153886,132.986934 162.064642,133.335355 160.971977,133.698603 C159.882733,134.074967 158.786646,134.471289 157.704816,134.926347 C159.461293,133.331934 161.485803,132.061992 163.639198,130.992777 C165.80628,129.970893 168.162126,129.178248 170.723845,129.027703 C171.360853,128.981512 172.012118,128.99862 172.670797,129.038537 C173.327195,129.101265 173.984163,129.22957 174.63942,129.405777 C175.288404,129.603653 175.937958,129.834603 176.553295,130.157934 C177.168633,130.46986 177.772564,130.83824 178.308061,131.282463 C178.876065,131.697033 179.324879,132.225653 179.795364,132.733744 C180.200836,133.280612 180.638815,133.820066 180.955323,134.410273 C181.665898,135.562744 182.125547,136.792198 182.545277,138.017661 L178.984989,138.08381 C179.194854,137.461669 179.350542,136.832116 179.616294,136.219669 C179.86779,135.603231 180.135254,134.990215 180.486549,134.401149 C180.793932,133.799537 181.231911,133.243546 181.651641,132.695537 C182.102165,132.159504 182.59261,131.654835 183.160614,131.227149 C183.723485,130.807446 184.318292,130.418537 184.951878,130.132273 C185.574059,129.816355 186.234448,129.601942 186.887424,129.43657 C188.197939,129.093851 189.525561,129.027703 190.792164,129.133769 C193.332212,129.326512 195.67323,130.110033 197.847726,131.104546 C200.007964,132.146388 202.049013,133.377554 203.847121,134.926347" id="Fill-236" sketch:type="MSShapeGroup"></path>
            <path d="M815.253206,162.703092 C813.682641,162.112885 812.121202,161.580274 810.543794,161.211323 C808.977222,160.820703 807.39069,160.600588 805.890271,160.653621 C805.143198,160.690687 804.426921,160.826406 803.771664,161.039108 C803.446031,161.149166 803.129523,161.278042 802.848943,161.45596 C802.554106,161.611637 802.295767,161.818637 802.049404,162.03191 C801.807033,162.253737 801.5812,162.49267 801.369054,162.754414 C801.177439,163.031555 800.965863,163.29615 800.817589,163.61891 C800.641941,163.919431 800.509635,164.253596 800.381321,164.591183 C800.243883,164.925348 800.166324,165.299431 800.052267,165.647852 L800.03801,165.691761 C799.805904,166.400009 799.053128,166.785497 798.3551,166.550555 C797.942784,166.413125 797.638822,166.082381 797.508227,165.695753 C797.276691,164.985794 797.037742,164.274125 796.674471,163.666811 C796.337432,163.037257 795.905157,162.497803 795.409579,162.05529 C794.440095,161.126927 793.08795,160.687265 791.601218,160.584051 C790.859278,160.532728 790.092245,160.589753 789.314376,160.679852 C788.536508,160.76767 787.752937,160.930761 786.975069,161.13491 C786.188076,161.31796 785.411918,161.567728 784.630058,161.827761 C783.85219,162.095778 783.070899,162.378621 782.296453,162.703092 C783.551649,161.566018 784.99561,160.657613 786.533668,159.894051 C788.081991,159.164133 789.764901,158.599018 791.595515,158.49067 C792.051743,158.457596 792.514814,158.470712 792.985299,158.498084 C793.455784,158.544274 793.922277,158.635513 794.391051,158.760398 C794.855833,158.901819 795.318904,159.067191 795.758593,159.298141 C796.198283,159.519968 796.628848,159.784563 797.012649,160.101621 C797.417552,160.397009 797.739762,160.775084 798.07452,161.138332 C798.364224,161.528951 798.67731,161.914439 798.901432,162.336422 C799.411837,163.15815 799.739181,164.037472 800.03801,164.912232 L797.495681,164.957852 C797.645665,164.514199 797.758012,164.066555 797.946206,163.628034 C798.125275,163.187803 798.31518,162.749282 798.568386,162.329009 C798.787375,161.899613 799.100462,161.50158 799.398721,161.11096 C799.722642,160.727183 800.069946,160.367356 800.477129,160.063414 C800.880891,159.762323 801.304042,159.483472 801.756278,159.279894 C802.2011,159.054075 802.673866,158.900108 803.138648,158.782637 C804.076196,158.538571 805.024009,158.49067 805.92848,158.565943 C807.741415,158.705654 809.41292,159.263356 810.969227,159.975026 C812.510706,160.718059 813.968924,161.596811 815.253206,162.703092" id="Fill-237" sketch:type="MSShapeGroup"></path>
            <path d="M507.066026,114.232018 C508.63659,113.641241 510.195748,113.109199 511.773726,112.740249 C513.340298,112.349629 514.929111,112.129513 516.427249,112.182546 C517.176033,112.219613 517.89231,112.355332 518.545286,112.568034 C518.871489,112.678092 519.187997,112.806398 519.470288,112.984315 C519.763415,113.140563 520.020043,113.347563 520.268117,113.560265 C520.510488,113.782662 520.73632,114.021026 520.946185,114.28334 C521.140082,114.56048 521.351657,114.824505 521.499931,115.147836 C521.673868,115.448356 521.807885,115.782522 521.93791,116.120108 C522.075349,116.453703 522.151197,116.828356 522.265254,117.176778 L522.281792,117.220687 C522.511617,117.928935 523.266103,118.314422 523.964132,118.07948 C524.375307,117.942051 524.676988,117.611307 524.807012,117.224679 C525.04254,116.51472 525.281489,115.80248 525.64305,115.195166 C525.980088,114.566183 526.410653,114.026728 526.909652,113.584216 C527.877425,112.655852 529.229,112.216191 530.716302,112.112976 C531.458243,112.061654 532.225276,112.118679 533.003144,112.208208 C533.781012,112.294885 534.562873,112.459687 535.342452,112.663265 C536.129445,112.846885 536.907313,113.096084 537.689173,113.356687 C538.467042,113.624703 539.248902,113.907546 540.023349,114.232018 C538.767582,113.094943 537.32191,112.186538 535.784423,111.422976 C534.235529,110.693059 532.550908,110.127943 530.723716,110.019596 C530.267488,109.986522 529.800996,109.999637 529.333932,110.027009 C528.863448,110.072629 528.395244,110.164439 527.92647,110.289323 C527.463399,110.430745 527.000327,110.595546 526.558927,110.827067 C526.120948,111.048894 525.686391,111.313489 525.306582,111.630546 C524.90168,111.925935 524.579469,112.304009 524.243001,112.667257 C523.953296,113.057877 523.64078,113.443365 523.414377,113.865348 C522.907394,114.687075 522.57834,115.565827 522.2778,116.441158 L524.82184,116.486778 C524.671855,116.042555 524.56122,115.59548 524.371315,115.15696 C524.192246,114.716728 524.00063,114.278208 523.749134,113.857935 C523.530145,113.428538 523.217059,113.030505 522.91823,112.639885 C522.596589,112.256108 522.245294,111.896282 521.840391,111.59177 C521.438341,111.291249 521.013479,111.012398 520.559532,110.808819 C520.117561,110.583001 519.643655,110.429034 519.178873,110.311563 C518.241895,110.067497 517.293512,110.019596 516.38904,110.094869 C514.574394,110.234009 512.902319,110.791712 511.348294,111.503951 C509.806814,112.246984 508.348596,113.125737 507.066026,114.232018" id="Fill-238" sketch:type="MSShapeGroup"></path>
            <path d="M32.6686859,138.732193 C31.0947002,138.141416 29.5321201,137.609374 27.9581343,137.240424 C26.3898514,136.849804 24.80446,136.629688 23.3046112,136.682721 C22.5575383,136.719217 21.8389795,136.855507 21.188855,137.068209 C20.8637927,137.177697 20.5444333,137.306573 20.2649938,137.48449 C19.9684457,137.640738 19.7118176,137.847738 19.4665952,138.06044 C19.2213728,138.282267 18.9932589,138.521201 18.7822536,138.783515 C18.5940596,139.060655 18.3773514,139.32468 18.2290774,139.64744 C18.057992,139.948531 17.9211237,140.282126 17.795661,140.620283 C17.6587927,140.953878 17.5789528,141.327961 17.4648959,141.676953 L17.4534902,141.720862 C17.2196735,142.42854 16.4668977,142.814027 15.7654475,142.579655 C15.3605454,142.441655 15.0525916,142.111482 14.9214262,141.724283 C14.6876094,141.014325 14.4537927,140.302655 14.0888105,139.695341 C13.7523425,139.066358 13.3189262,138.526333 12.8227785,138.084391 C11.8532945,137.156027 10.5017198,136.715796 9.01327669,136.613151 C8.27190658,136.561829 7.50772509,136.618854 6.72643505,136.708383 C5.95084786,136.79449 5.16955783,136.959862 4.38826779,137.16344 C3.60127491,137.34706 2.82568772,137.596259 2.04439769,137.856862 C1.26310765,138.124878 0.481817616,138.407151 -0.288066726,138.732193 C0.966559609,137.594548 2.40937989,136.686713 3.94914858,135.923151 C5.50032295,135.193234 7.18266281,134.628118 9.00757384,134.519771 C9.4638016,134.486697 9.93143505,134.499242 10.3990685,134.527184 C10.866702,134.572804 11.3400383,134.664614 11.8019689,134.789498 C12.2696023,134.93092 12.7315329,135.095721 13.1706521,135.326672 C13.6097714,135.549069 14.0431877,135.813093 14.4252785,136.130721 C14.8301806,136.42611 15.1552429,136.803614 15.486008,137.166862 C15.7768532,137.557482 16.0905098,137.942969 16.3186237,138.365523 C16.826177,139.18668 17.1512393,140.066002 17.4534902,140.941333 L14.9100205,140.986953 C15.0582945,140.54273 15.1723514,140.095085 15.3605454,139.656564 C15.5373336,139.216333 15.7312304,138.777812 15.9821557,138.35754 C16.1988639,137.928143 16.5182233,137.53068 16.8147714,137.13949 C17.1341308,136.756283 17.4877073,136.396457 17.8926094,136.091945 C18.2918087,135.790854 18.7195222,135.512573 19.1700472,135.308424 C19.6148692,135.083176 20.0882055,134.928639 20.555839,134.811738 C21.4911059,134.567102 22.4377785,134.519771 23.3445311,134.595044 C25.1580365,134.734184 26.8289706,135.291887 28.3858479,136.003556 C29.9256165,136.747159 31.3855454,137.625912 32.6686859,138.732193" id="Fill-239" sketch:type="MSShapeGroup"></path>
            <path d="M129.109967,21.5711888 C127.541684,20.9798417 125.979104,20.4478004 124.405118,20.0794203 C122.836835,19.6882302 121.245741,19.4681145 119.751595,19.5217178 C118.998819,19.5582136 118.285964,19.6939327 117.630136,19.9072054 C117.305074,20.016693 116.991417,20.145569 116.706275,20.3234864 C116.41543,20.4791641 116.153099,20.6867343 115.907876,20.8994368 C115.662654,21.1212632 115.440243,21.3596269 115.229238,21.6219409 C115.035341,21.8990814 114.824335,22.1636765 114.676061,22.4864368 C114.499273,22.7869574 114.368108,23.1211227 114.236942,23.4587095 C114.100074,23.7923046 114.025937,24.1669574 113.91188,24.5153789 L113.894771,24.5598583 C113.666657,25.267536 112.913882,25.6530236 112.212431,25.4180814 C111.801827,25.2806517 111.499576,24.9504781 111.36841,24.5632798 C111.134593,23.8533211 110.895074,23.1410814 110.535794,22.5337674 C110.199327,21.9047839 109.76591,21.3653293 109.269762,20.9233872 C108.300278,19.9950236 106.948704,19.5542219 105.460261,19.4515773 C104.718891,19.400255 103.954709,19.4572798 103.173419,19.5473789 C102.397832,19.6334864 101.610839,19.7988583 100.835252,20.0024368 C100.048259,20.1854864 99.2726717,20.435255 98.4856788,20.6958583 C97.7100916,20.9638748 96.9288016,21.2461475 96.1532144,21.5711888 C97.4078407,20.4335442 98.8563639,19.5251393 100.39043,18.7621475 C101.941604,18.0316599 103.623944,17.4665442 105.454558,17.3581971 C105.910786,17.325693 106.372716,17.3382384 106.846052,17.3656103 C107.313686,17.4118004 107.781319,17.5036103 108.248953,17.6279244 C108.716586,17.7693459 109.178517,17.9347178 109.617636,18.1656682 C110.056755,18.3874946 110.490172,18.6520897 110.872262,18.9691475 C111.277165,19.264536 111.596524,19.6426103 111.932992,20.0058583 C112.223837,20.3964781 112.537494,20.7819657 112.759905,21.2039492 C113.267458,22.0256765 113.598223,22.9044285 113.894771,23.7797591 L111.357004,23.8259492 C111.505278,23.381726 111.613633,22.9340814 111.801827,22.4955607 C111.984318,22.0553293 112.172512,21.6168087 112.42914,21.196536 C112.645848,20.7671393 112.959504,20.3691062 113.256052,19.9784864 C113.581115,19.5947095 113.928988,19.2354533 114.339593,18.9309409 C114.738793,18.62985 115.160803,18.3509988 115.617031,18.1474203 C116.061853,17.9216021 116.53519,17.7676351 116.99712,17.6501641 C117.932387,17.4060979 118.87906,17.3581971 119.785812,17.4334698 C121.599318,17.5731806 123.270252,18.1308831 124.827129,18.8425525 C126.366898,19.5855855 127.826827,20.4649079 129.109967,21.5711888" id="Fill-240" sketch:type="MSShapeGroup"></path>
        </g>
    </g>
</svg>