<?xml version="1.0" encoding="UTF-8" standalone="no"?>
<svg width="233px" height="37px" viewBox="0 0 233 37" version="1.1" xmlns="http://www.w3.org/2000/svg" xmlns:xlink="http://www.w3.org/1999/xlink" xmlns:sketch="http://www.bohemiancoding.com/sketch/ns">
    <!-- Generator: Sketch Beta 3.1.1 (8761) - http://www.bohemiancoding.com/sketch -->
    <title>deadliner</title>
    <desc>Created with Sketch Beta.</desc>
    <defs></defs>
    <g id="Page-1" stroke="none" stroke-width="1" fill="none" fill-rule="evenodd" sketch:type="MSPage">
        <path d="M12.864,36.48 C11.1359914,36.48 9.54400728,36.1600032 8.088,35.52 C6.63199272,34.8799968 5.37600528,33.9760058 4.32,32.808 C3.26399472,31.6399942 2.44000296,30.2480081 1.848,28.632 C1.25599704,27.0159919 0.96,25.2480096 0.96,23.328 C0.96,21.4719907 1.23199728,19.744008 1.776,18.144 C2.32000272,16.543992 3.07999512,15.1600058 4.056,13.992 C5.03200488,12.8239942 6.19199328,11.9120033 7.536,11.256 C8.88000672,10.5999967 10.3679918,10.272 12,10.272 C13.6320082,10.272 15.1279932,10.6399963 16.488,11.376 C17.8480068,12.1120037 18.8959963,13.1519933 19.632,14.496 L19.632,0.96 L28.752,0.96 L28.752,25.92 C28.752,26.7840043 28.9119984,27.3839983 29.232,27.72 C29.5520016,28.0560017 30.1279958,28.2559997 30.96,28.32 L30.96,36 C30.0319954,36.1600008 29.2160035,36.2799996 28.512,36.36 C27.8079965,36.4400004 27.1840027,36.48 26.64,36.48 C23.5359845,36.48 21.7440024,35.3120117 21.264,32.976 L21.072,32.064 C20.2079957,33.6000077 19.0400074,34.7199965 17.568,35.424 C16.0959926,36.1280035 14.5280083,36.48 12.864,36.48 L12.864,36.48 Z M15.36,28.8 C17.0240083,28.8 18.4639939,27.9360086 19.68,26.208 L19.68,21.696 C19.2319978,20.5759944 18.5760043,19.6720034 17.712,18.984 C16.8479957,18.2959966 15.9360048,17.952 14.976,17.952 C14.3039966,17.952 13.6880028,18.0959986 13.128,18.384 C12.5679972,18.6720014 12.088002,19.0719974 11.688,19.584 C11.287998,20.0960026 10.9680012,20.6879966 10.728,21.36 C10.4879988,22.0320034 10.368,22.7519962 10.368,23.52 C10.368,25.120008 10.8239954,26.3999952 11.736,27.36 C12.6480046,28.3200048 13.8559925,28.8 15.36,28.8 L15.36,28.8 Z M46.992,36.48 C44.783989,36.48 42.8160086,36.1360034 41.088,35.448 C39.3599914,34.7599966 37.9120058,33.8240059 36.744,32.64 C35.5759942,31.4559941 34.688003,30.0960077 34.08,28.56 C33.471997,27.0239923 33.168,25.4080085 33.168,23.712 C33.168,21.8879909 33.463997,20.1600082 34.056,18.528 C34.648003,16.8959918 35.5279942,15.4720061 36.696,14.256 C37.8640058,13.0399939 39.3039914,12.0720036 41.016,11.352 C42.7280086,10.6319964 44.7199886,10.272 46.992,10.272 C49.2320112,10.272 51.2159914,10.6319964 52.944,11.352 C54.6720086,12.0720036 56.1199942,13.031994 57.288,14.232 C58.4560058,15.432006 59.335997,16.8239921 59.928,18.408 C60.520003,19.9920079 60.816,21.6479914 60.816,23.376 C60.816,23.8560024 60.7920002,24.3439975 60.744,24.84 C60.6959998,25.3360025 60.6400003,25.7759981 60.576,26.16 L42.864,26.16 C42.9600005,27.5040067 43.4559955,28.471997 44.352,29.064 C45.2480045,29.656003 46.2239947,29.952 47.28,29.952 C48.272005,29.952 49.2079956,29.7280022 50.088,29.28 C50.9680044,28.8319978 51.5519986,28.208004 51.84,27.408 L59.568,29.616 C58.5439949,31.6320101 56.9680106,33.2799936 54.84,34.56 C52.7119894,35.8400064 50.0960155,36.48 46.992,36.48 L46.992,36.48 Z M51.024,20.688 C50.8639992,19.4719939 50.4160037,18.5120035 49.68,17.808 C48.9439963,17.1039965 48.0000058,16.752 46.848,16.752 C45.6959942,16.752 44.7520037,17.1039965 44.016,17.808 C43.2799963,18.5120035 42.8320008,19.4719939 42.672,20.688 L51.024,20.688 Z M71.28,36.48 C70.0319938,36.48 68.8640054,36.2720021 67.776,35.856 C66.6879946,35.4399979 65.7520039,34.8720036 64.968,34.152 C64.1839961,33.4319964 63.5680022,32.576005 63.12,31.584 C62.6719978,30.591995 62.448,29.5200058 62.448,28.368 C62.448,27.0879936 62.7199973,25.9200053 63.264,24.864 C63.8080027,23.8079947 64.5599952,22.8960038 65.52,22.128 C66.4800048,21.3599962 67.6239934,20.7680021 68.952,20.352 C70.2800066,19.9359979 71.743992,19.728 73.344,19.728 C75.3920102,19.728 77.0879933,20.0479968 78.432,20.688 L78.432,19.92 C78.432,18.7359941 78.0880034,17.8560029 77.4,17.28 C76.7119966,16.7039971 75.6000077,16.416 74.064,16.416 C72.6239928,16.416 71.2960061,16.6479977 70.08,17.112 C68.8639939,17.5760023 67.5840067,18.2559955 66.24,19.152 L63.6,13.488 C66.9280166,11.3439893 70.7199787,10.272 74.976,10.272 C79.0080202,10.272 82.1119891,11.167991 84.288,12.96 C86.4640109,14.752009 87.552,17.4399821 87.552,21.024 L87.552,25.92 C87.552,26.7840043 87.7119984,27.3839983 88.032,27.72 C88.3520016,28.0560017 88.9279958,28.2559997 89.76,28.32 L89.76,36 C88.9279958,36.1600008 88.1440037,36.2799996 87.408,36.36 C86.6719963,36.4400004 86.0160029,36.48 85.44,36.48 C83.8079918,36.48 82.5680042,36.184003 81.72,35.592 C80.8719958,34.999997 80.3200013,34.1280058 80.064,32.976 L79.872,32.064 C78.7519944,33.5040072 77.4560074,34.5999962 75.984,35.352 C74.5119926,36.1040038 72.9440083,36.48 71.28,36.48 L71.28,36.48 Z M74.016,29.952 C74.5600027,29.952 75.1199971,29.8640009 75.696,29.688 C76.2720029,29.5119991 76.7839978,29.2800014 77.232,28.992 C77.5840018,28.7359987 77.8719989,28.4560015 78.096,28.152 C78.3200011,27.8479985 78.432,27.5360016 78.432,27.216 L78.432,25.344 C77.8879973,25.151999 77.2960032,24.9920006 76.656,24.864 C76.0159968,24.7359994 75.4400026,24.672 74.928,24.672 C73.8079944,24.672 72.8800037,24.9439973 72.144,25.488 C71.4079963,26.0320027 71.04,26.7199958 71.04,27.552 C71.04,28.2560035 71.3199972,28.8319978 71.88,29.28 C72.4400028,29.7280022 73.1519957,29.952 74.016,29.952 L74.016,29.952 Z M103.392,36.48 C101.663991,36.48 100.072007,36.1600032 98.616,35.52 C97.1599927,34.8799968 95.9040053,33.9760058 94.848,32.808 C93.7919947,31.6399942 92.968003,30.2480081 92.376,28.632 C91.783997,27.0159919 91.488,25.2480096 91.488,23.328 C91.488,21.4719907 91.7599973,19.744008 92.304,18.144 C92.8480027,16.543992 93.6079951,15.1600058 94.584,13.992 C95.5600049,12.8239942 96.7199933,11.9120033 98.064,11.256 C99.4080067,10.5999967 100.895992,10.272 102.528,10.272 C104.160008,10.272 105.655993,10.6399963 107.016,11.376 C108.376007,12.1120037 109.423996,13.1519933 110.16,14.496 L110.16,0.96 L119.28,0.96 L119.28,25.92 C119.28,26.7840043 119.439998,27.3839983 119.76,27.72 C120.080002,28.0560017 120.655996,28.2559997 121.488,28.32 L121.488,36 C120.559995,36.1600008 119.744004,36.2799996 119.04,36.36 C118.335996,36.4400004 117.712003,36.48 117.168,36.48 C114.063984,36.48 112.272002,35.3120117 111.792,32.976 L111.6,32.064 C110.735996,33.6000077 109.568007,34.7199965 108.096,35.424 C106.623993,36.1280035 105.056008,36.48 103.392,36.48 L103.392,36.48 Z M105.888,28.8 C107.552008,28.8 108.991994,27.9360086 110.208,26.208 L110.208,21.696 C109.759998,20.5759944 109.104004,19.6720034 108.24,18.984 C107.375996,18.2959966 106.464005,17.952 105.504,17.952 C104.831997,17.952 104.216003,18.0959986 103.656,18.384 C103.095997,18.6720014 102.616002,19.0719974 102.216,19.584 C101.815998,20.0960026 101.496001,20.6879966 101.256,21.36 C101.015999,22.0320034 100.896,22.7519962 100.896,23.52 C100.896,25.120008 101.351995,26.3999952 102.264,27.36 C103.176005,28.3200048 104.383992,28.8 105.888,28.8 L105.888,28.8 Z M124.944,0.96 L134.064,0.96 L134.064,25.344 C134.064,27.2640096 134.847992,28.224 136.416,28.224 C136.800002,28.224 137.215998,28.1600006 137.664,28.032 C138.112002,27.9039994 138.527998,27.7280011 138.912,27.504 L140.064,34.848 C138.975995,35.3600026 137.752007,35.7599986 136.392,36.048 C135.031993,36.3360014 133.744006,36.48 132.528,36.48 C130.095988,36.48 128.224007,35.8560062 126.912,34.608 C125.599993,33.3599938 124.944,31.5520118 124.944,29.184 L124.944,0.96 Z M142.512,36 L142.512,10.752 L151.632,10.752 L151.632,36 L142.512,36 Z M142.512,8.64 L142.512,0.96 L151.632,0.96 L151.632,8.64 L142.512,8.64 Z M181.632,36 L172.512,36 L172.512,21.792 C172.512,20.5439938 172.232003,19.6400028 171.672,19.08 C171.111997,18.5199972 170.464004,18.24 169.728,18.24 C168.959996,18.24 168.144004,18.5759966 167.28,19.248 C166.415996,19.9200034 165.776002,20.7839947 165.36,21.84 L165.36,36 L156.24,36 L156.24,10.752 L164.448,10.752 L164.448,14.496 C165.344004,13.1199931 166.599992,12.0720036 168.216,11.352 C169.832008,10.6319964 171.743989,10.272 173.952,10.272 C175.680009,10.272 177.047995,10.5839969 178.056,11.208 C179.064005,11.8320031 179.831997,12.6079954 180.36,13.536 C180.888003,14.4640046 181.231999,15.4559947 181.392,16.512 C181.552001,17.5680053 181.632,18.5279957 181.632,19.392 L181.632,36 Z M198.48,36.48 C196.271989,36.48 194.304009,36.1360034 192.576,35.448 C190.847991,34.7599966 189.400006,33.8240059 188.232,32.64 C187.063994,31.4559941 186.176003,30.0960077 185.568,28.56 C184.959997,27.0239923 184.656,25.4080085 184.656,23.712 C184.656,21.8879909 184.951997,20.1600082 185.544,18.528 C186.136003,16.8959918 187.015994,15.4720061 188.184,14.256 C189.352006,13.0399939 190.791991,12.0720036 192.504,11.352 C194.216009,10.6319964 196.207989,10.272 198.48,10.272 C200.720011,10.272 202.703991,10.6319964 204.432,11.352 C206.160009,12.0720036 207.607994,13.031994 208.776,14.232 C209.944006,15.432006 210.823997,16.8239921 211.416,18.408 C212.008003,19.9920079 212.304,21.6479914 212.304,23.376 C212.304,23.8560024 212.28,24.3439975 212.232,24.84 C212.184,25.3360025 212.128,25.7759981 212.064,26.16 L194.352,26.16 C194.448,27.5040067 194.943996,28.471997 195.84,29.064 C196.736004,29.656003 197.711995,29.952 198.768,29.952 C199.760005,29.952 200.695996,29.7280022 201.576,29.28 C202.456004,28.8319978 203.039999,28.208004 203.328,27.408 L211.056,29.616 C210.031995,31.6320101 208.456011,33.2799936 206.328,34.56 C204.199989,35.8400064 201.584016,36.48 198.48,36.48 L198.48,36.48 Z M202.512,20.688 C202.351999,19.4719939 201.904004,18.5120035 201.168,17.808 C200.431996,17.1039965 199.488006,16.752 198.336,16.752 C197.183994,16.752 196.240004,17.1039965 195.504,17.808 C194.767996,18.5120035 194.320001,19.4719939 194.16,20.688 L202.512,20.688 Z M232.464,18.528 C230.703991,18.528 229.104007,18.7199981 227.664,19.104 C226.223993,19.4880019 225.152004,20.1279955 224.448,21.024 L224.448,36 L215.328,36 L215.328,10.752 L223.68,10.752 L223.68,15.552 C224.576004,13.8559915 225.687993,12.5520046 227.016,11.64 C228.344007,10.7279954 229.775992,10.272 231.312,10.272 C231.920003,10.272 232.303999,10.2879998 232.464,10.32 L232.464,18.528 Z" id="deadliner" fill="#FFFFFF" sketch:type="MSShapeGroup"></path>
    </g>
</svg>