<?xml version="1.0" encoding="UTF-8" standalone="no"?>
<svg width="16px" height="16px" viewBox="0 0 16 16" version="1.1" xmlns="http://www.w3.org/2000/svg" xmlns:xlink="http://www.w3.org/1999/xlink" xmlns:sketch="http://www.bohemiancoding.com/sketch/ns">
    <!-- Generator: Sketch Beta 3.1.1 (8761) - http://www.bohemiancoding.com/sketch -->
    <title>link</title>
    <desc>Created with Sketch Beta.</desc>
    <defs></defs>
    <g id="Page-1" stroke="none" stroke-width="1" fill="none" fill-rule="evenodd" sketch:type="MSPage">
        <path d="M15.707704,5.89827806 L12.2049041,9.40100206 C11.8182607,9.78769238 11.1910279,9.78769238 10.803384,9.40100206 L10.1021238,8.69965686 L13.6069244,5.19643262 L10.8038842,2.39305283 L7.30158456,5.89827806 L6.59982414,5.19643262 C6.21268048,4.8097423 6.21268048,4.1819333 6.59982414,3.79474272 L10.102624,0.291518482 C10.4912682,-0.0971728273 11.1170004,-0.0971728273 11.5041441,0.291518482 L15.7082042,4.49658816 C16.0973486,4.88377873 16.0973486,5.50958675 15.707704,5.89827806 L15.707704,5.89827806 Z M8.70060372,10.1033477 L5.19780386,13.608573 L2.39326312,10.8031922 L5.89956428,7.29996795 L5.19780386,6.59812251 C4.80915964,6.21093194 4.18342744,6.21093194 3.79628377,6.59812251 L0.291483167,10.1033477 C-0.0971610557,10.4900381 -0.0971610557,11.1158461 0.291483167,11.5030367 L4.49804419,15.7096071 C4.88518785,16.0967976 5.51041987,16.0967976 5.89956428,15.7096071 L9.40186396,12.2043818 C9.78850744,11.8176915 9.78850744,11.1923838 9.40186396,10.8026919 L8.70060372,10.1033477 L8.70060372,10.1033477 Z M5.19780386,10.8031922 C5.58494753,11.1923838 6.21218029,11.1923838 6.59932396,10.8031922 L10.803384,6.59862276 C11.1905277,6.21143219 11.1905277,5.58412344 10.803384,5.19693287 C10.4167406,4.81024254 9.78900762,4.81024254 9.40186396,5.19693287 L5.19730368,9.40200255 C4.80915964,9.78819263 4.80915964,10.4160016 5.19780386,10.8031922 L5.19780386,10.8031922 Z" id="link" fill="#939393" sketch:type="MSShapeGroup"></path>
    </g>
</svg>