<?xml version="1.0" encoding="UTF-8" standalone="no"?>
<svg width="203px" height="152px" viewBox="0 0 203 152" version="1.1" xmlns="http://www.w3.org/2000/svg" xmlns:xlink="http://www.w3.org/1999/xlink" xmlns:sketch="http://www.bohemiancoding.com/sketch/ns">
    <!-- Generator: Sketch Beta 3.1.1 (8761) - http://www.bohemiancoding.com/sketch -->
    <title>Group 4</title>
    <desc>Created with Sketch Beta.</desc>
    <defs></defs>
    <g id="Milestones---grid-Copy" stroke="none" stroke-width="1" fill="none" fill-rule="evenodd" sketch:type="MSPage">
        <g id="Artboard-1" sketch:type="MSArtboardGroup" transform="translate(-470.000000, -519.000000)">
            <g id="Group-4" sketch:type="MSLayerGroup" transform="translate(571.500000, 595.000000) scale(-1, 1) translate(-571.500000, -595.000000) translate(470.000000, 519.000000)">
                <rect id="Rectangle-4" fill="#37303F" sketch:type="MSShapeGroup" x="18" y="1" width="88" height="151"></rect>
                <path d="M89,152 L106,152 L106,20.9931743 C106,9.95124905 97.0369489,1 86.0039279,1 L72,1 L72,152 L89,152 Z" id="Rectangle-5" fill="#49444E" sketch:type="MSShapeGroup"></path>
                <rect id="Rectangle-5" fill="#FFFFFF" sketch:type="MSShapeGroup" x="41" y="9" width="59" height="59" rx="14"></rect>
                <path d="M56,27.6923828 C56,27.6923828 63,29.8659932 63,26 C63,22.1340068 59.8659932,19 56,19 C52.1340068,19 49,22.1340068 49,26 C49,29.8659932 56,27.6923828 56,27.6923828 Z" id="Oval-5" fill="#37303F" sketch:type="MSShapeGroup"></path>
                <path d="M83,27.1191406 C83,27.1191406 90,29.8659932 90,26 C90,22.1340068 86.8659932,19 83,19 C79.1340068,19 76,22.1340068 76,26 C76,29.8659932 83,27.1191406 83,27.1191406 Z" id="Oval-5" fill="#37303F" sketch:type="MSShapeGroup"></path>
                <path d="M73.106742,37.2247196 C72.2193629,35.9960409 70.7795511,35.9975446 69.893258,37.2247196 L66.606742,41.7752804 C65.7193629,43.0039591 66.2230084,44 67.7569656,44 L75.2430344,44 C76.7656644,44 77.2795511,43.0024554 76.393258,41.7752804 L73.106742,37.2247196 Z" id="Rectangle-6" fill="#37303F" sketch:type="MSShapeGroup"></path>
                <path d="M54.5,54.5 C54.5,54.5 65.595054,58.5449219 71.0302753,58.5449219 C76.6152376,58.5449219 87.5605507,54.5 87.5605507,54.5" id="Line" stroke="#37303F" stroke-width="3" stroke-linecap="round" sketch:type="MSShapeGroup"></path>
                <g id="Line-+-Line" transform="translate(56.000000, 52.000000)" stroke="#37303F" stroke-width="3" stroke-linecap="round" sketch:type="MSShapeGroup">
                    <path d="M3.5,0.5 L0.5,7.5" id="Line"></path>
                    <path d="M9.79990436,2.22103799 L7.32464869,9.77896201" id="Line"></path>
                </g>
                <g id="Line-+-Line" transform="translate(82.000000, 57.000000) scale(-1, 1) translate(-82.000000, -57.000000) translate(77.000000, 52.000000)" stroke="#37303F" stroke-width="3" stroke-linecap="round" sketch:type="MSShapeGroup">
                    <path d="M3.5,0.5 L0.5,7.5" id="Line"></path>
                    <path d="M9.79990436,2.22103799 L7.32464869,9.77896201" id="Line"></path>
                </g>
                <path d="M71.5754749,54.8488519 L71.5490782,62.4645792" id="Line" stroke="#37303F" stroke-width="3" stroke-linecap="round" sketch:type="MSShapeGroup"></path>
                <path d="M0.0751953125,1 L18.0449219,33.6582031 L20,16 L20,1 L0.0751953125,1 Z" id="Rectangle-7" fill="#37303F" sketch:type="MSShapeGroup"></path>
                <path d="M105,81 L105,98 L133,115 L133,81 L105,81 Z" id="Rectangle-8" fill="#49444E" sketch:type="MSShapeGroup"></path>
                <path d="M123,0 L123,30 L203,0 L123,0 Z" id="Rectangle-12" fill="#F1F1F1" sketch:type="MSShapeGroup"></path>
                <rect id="Rectangle-9" fill="#DBB86D" sketch:type="MSShapeGroup" x="130" y="0" width="7" height="152" rx="3"></rect>
                <path d="M18.0556641,137 L10,152 L23,152 L23,137 L18.0556641,137 Z" id="Rectangle-10" fill="#37303F" sketch:type="MSShapeGroup"></path>
                <path d="M109.055664,137 L101,152 L114,152 L114,137 L109.055664,137 Z" id="Rectangle-10" fill="#49444E" sketch:type="MSShapeGroup" transform="translate(107.500000, 144.500000) scale(-1, 1) translate(-107.500000, -144.500000) "></path>
                <rect id="Rectangle-13" fill="#F0F0F0" sketch:type="MSShapeGroup" x="130" y="81" width="7" height="17" rx="2"></rect>
            </g>
        </g>
    </g>
</svg>