<?xml version="1.0" encoding="UTF-8" standalone="no"?>
<svg opacity="0.30" width="589px" height="241px" viewBox="0 0 589 241" version="1.1" xmlns="http://www.w3.org/2000/svg" xmlns:xlink="http://www.w3.org/1999/xlink" xmlns:sketch="http://www.bohemiancoding.com/sketch/ns">
    <!-- Generator: Sketch Beta 3.1.1 (8761) - http://www.bohemiancoding.com/sketch -->
    <title>scene</title>
    <desc>Created with Sketch Beta.</desc>
    <defs></defs>
    <g id="Page-1" stroke="none" stroke-width="1" fill="none" fill-rule="evenodd" sketch:type="MSPage">
        <g id="scene" sketch:type="MSLayerGroup">
            <g id="Page-1" sketch:type="MSShapeGroup">
                <g id="scene">
                    <path d="M147.016661,0.545454545 L30.7048158,240.213818 L147.016661,240.213818" id="Fill-27" fill="#72766E"></path>
                    <path d="M147.020083,0 L263.331928,240.668364 L147.020083,240.668364 L147.020083,0" id="Fill-28" fill="#555953"></path>
                    <path d="M419.121731,15.9421488 L320.409442,240.072397 L419.121731,240.072397" id="Fill-29" fill="#72766E"></path>
                    <path d="M419.068695,15.9421488 L517.779273,240.072397 L419.068695,240.072397" id="Fill-30" fill="#555953"></path>
                    <path d="M78.8014867,62.7024793 L0.479726868,240.536579 L78.8014867,240.536579" id="Fill-31" fill="#72766E"></path>
                    <path d="M79.1790151,62.7024793 L157.501345,240.536579 L79.1790151,240.536579" id="Fill-32" fill="#555953"></path>
                    <path d="M322.313052,63.1322314 L243.991293,240.96576 L322.313052,240.96576" id="Fill-33" fill="#72766E"></path>
                    <path d="M322.120296,63.1322314 L400.442626,240.96576 L322.120296,240.96576" id="Fill-34" fill="#555953"></path>
                    <path d="M497.767983,110.603306 L440.739513,240.085512 L497.767983,240.085512" id="Fill-35" fill="#72766E"></path>
                    <path d="M497.767983,110.603306 L554.796453,240.085512 L497.767983,240.085512" id="Fill-36" fill="#555953"></path>
                    <path d="M497.585492,110.033058 L473.245741,165.30605 L485.615216,158.879355 L480.978802,184.477215 L497.585492,162.402347 L507.633908,174.379264 L510.16027,156.531074 L519.872218,160.633438 L497.585492,110.033058" id="Fill-135" fill="#D4D5CF"></path>
                    <path d="M419.688024,15.9421488 L386.562467,91.155 L403.126386,78.8262397 L408.832655,117.491901 L419.688024,91.155 L435.52426,100.693537 L439.973051,80.6755537 L453.345086,92.3605041" id="Fill-137" fill="#D4D5CF"></path>
                    <path d="M496.735768,163.884992 L496.735768,112.31405 L473.245741,165.660744 L484.52027,162.023132 L480.978802,184.831909 L496.735768,163.884992" id="Fill-138" fill="#FFFFFF"></path>
                    <path d="M322.70741,60.9917355 L296.457485,118.321612 L309.082448,108.924496 L313.432009,138.39719 L321.70741,118.321612 L333.778626,125.592843 L337.168969,110.333579 L347.362238,119.240851" id="Fill-139" fill="#D4D5CF"></path>
                    <path d="M116.809798,226.785124 L129.720473,226.785124 L129.720473,241 L116.809798,241 L116.809798,226.785124 L116.809798,226.785124 Z" id="Fill-140" fill="#1A1918"></path>
                    <path d="M418.441661,15.5123967 L385.562467,90.1675455 L402.126386,77.8387851 L407.832655,116.504446 L418.441661,90.7640248 L418.441661,15.5123967" id="Fill-141" fill="#FFFFFF"></path>
                    <path d="M322.199566,62.1094215 L321.70741,60.9917355 L296.457485,118.321612 L309.082448,108.924496 L313.432009,138.39719 L321.70741,118.321612 L322.199566,118.619281 L322.199566,62.1094215" id="Fill-142" fill="#FFFFFF"></path>
                    <path d="M352.91567,82.661157 L371.297657,82.661157 L371.297657,113.696901 L352.91567,113.696901 L352.91567,82.661157 L352.91567,82.661157 Z" id="Fill-143" fill="#D6B688"></path>
                    <path d="M350.064246,79.2396694 L373.570241,79.2396694 L373.570241,84.114719 L350.064246,84.114719 L350.064246,79.2396694 L350.064246,79.2396694 Z" id="Fill-144" fill="#1A1918"></path>
                    <path d="M483.2799,240.253736 L339.228837,240.253736 L339.228837,122.008264 L452.592881,122.008264 L452.592881,167.279107 L483.2799,166.967182 L483.2799,240.253736" id="Fill-145" fill="#D6B688"></path>
                    <path d="M396.5,78.2636719 L344,123 L449,123 L396.5,78.2636719 L396.5,78.2636719 Z" id="Rectangle-16" fill="#D6B688"></path>
                    <path d="M339.228837,222.942149 L483.2799,222.942149 L483.2799,240.434504 L339.228837,240.434504 L339.228837,222.942149 L339.228837,222.942149 Z" id="Fill-147" fill="#4C402F"></path>
                    <path d="M397.590633,170.479339 L385.421898,180.727264 L409.755946,180.727264 L397.590633,170.479339 L385.421898,180.727264 L409.755946,180.727264 L397.590633,170.479339" id="Fill-148" fill="#1A1918"></path>
                    <path d="M384.851613,181.31405 L409.649302,181.31405 L409.649302,222.269256 L384.851613,222.269256 L384.851613,181.31405 L384.851613,181.31405 Z" id="Fill-149" fill="#E4E5E3"></path>
                    <path d="M419.068695,181.31405 L442.309507,181.31405 L442.309507,204.878975 L419.068695,204.878975 L419.068695,181.31405 L419.068695,181.31405 Z" id="Fill-150" fill="#E4E5E3"></path>
                    <path d="M452.715492,181.31405 L475.960296,181.31405 L475.960296,204.878975 L452.715492,204.878975 L452.715492,181.31405 L452.715492,181.31405 Z" id="Fill-151" fill="#E4E5E3"></path>
                    <path d="M419.068695,136.264463 L442.309507,136.264463 L442.309507,159.838512 L419.068695,159.838512 L419.068695,136.264463 L419.068695,136.264463 Z" id="Fill-152" fill="#E4E5E3"></path>
                    <path d="M385.992182,136.264463 L409.240408,136.264463 L409.240408,159.838512 L385.992182,159.838512 L385.992182,136.264463 L385.992182,136.264463 Z" id="Fill-153" fill="#E4E5E3"></path>
                    <path d="M352.345385,136.264463 L375.59076,136.264463 L375.59076,159.838512 L352.345385,159.838512 L352.345385,136.264463 L352.345385,136.264463 Z" id="Fill-154" fill="#E4E5E3"></path>
                    <path d="M352.345385,181.31405 L375.59076,181.31405 L375.59076,204.878975 L352.345385,204.878975 L352.345385,181.31405 L352.345385,181.31405 Z" id="Fill-155" fill="#E4E5E3"></path>
                    <path d="M348.939645,122.22781 L397.211964,84.2721074 L445.201991,122.22781 L459.76307,122.22781 L397.211964,70.6859504 L334.66656,122.22781 L348.939645,122.22781" id="Fill-156" fill="#1A1918"></path>
                    <path d="M445.301791,122.008264 L459.980349,122.008264 L459.980349,127.97819 L445.301791,127.97819 L445.301791,122.008264 L445.301791,122.008264 Z" id="Fill-157" fill="#1A1918"></path>
                    <path d="M334.66656,122.008264 L349.339415,122.008264 L349.339415,127.97819 L334.66656,127.97819 L334.66656,122.008264 L334.66656,122.008264 Z" id="Fill-158" fill="#1A1918"></path>
                    <path d="M448.723499,141.396694 L480.528277,167.089785 L450.268971,170.049372" id="Fill-159" fill="#D6B688"></path>
                    <path d="M452.715492,135.123967 L452.715492,147.930025 L477.175003,167.280248 L491.734371,167.280248 L452.715492,135.123967" id="Fill-160" fill="#1A1918"></path>
                    <path d="M476.667449,167.057851 L491.340875,167.057851 L491.340875,173.027777 L476.667449,173.027777 L476.667449,167.057851 L476.667449,167.057851 Z" id="Fill-161" fill="#1A1918"></path>
                    <rect id="Rectangle-5" fill="#1A1919" x="378" y="231" width="8" height="10"></rect>
                    <path d="M401.938483,211.526926 C401.938483,222.857752 392.880081,232.046727 381.706493,232.046727 C370.528913,232.046727 361.46994,222.857752 361.46994,211.526926 C361.46994,200.196099 370.528913,191.008264 381.706493,191.008264 C392.880081,191.008264 401.938483,200.196099 401.938483,211.526926" id="Fill-163" fill="#367049"></path>
                    <rect id="Rectangle-4" fill="#1A1919" x="355" y="226" width="7" height="15"></rect>
                    <path d="M385.149872,199.803769 C385.149872,214.736281 373.210962,226.847207 358.48393,226.847207 C343.752906,226.847207 331.815136,214.736281 331.815136,199.803769 C331.815136,184.871826 343.752906,172.760331 358.48393,172.760331 C373.210962,172.760331 385.149872,184.871826 385.149872,199.803769" id="Fill-165" fill="#367049"></path>
                    <path d="M381.92149,191.019099 C381.849064,191.019099 381.778919,191.008264 381.706493,191.008264 C370.528913,191.008264 361.46994,200.196099 361.46994,211.526926 C361.46994,222.857752 370.528913,232.046727 381.706493,232.046727 C381.778919,232.046727 381.849064,232.035322 381.92149,232.035322 L381.92149,191.019099" id="Fill-166" fill="#3E7D51"></path>
                    <path d="M358.179398,172.760331 C343.593226,172.926843 331.815136,184.960215 331.815136,199.788372 C331.815136,214.616529 343.593226,226.649901 358.179398,226.816983 L358.179398,172.760331" id="Fill-167" fill="#3E7D51"></path>
                    <path d="M149.052007,199.803769 C149.052007,214.736281 137.112527,226.847207 122.385495,226.847207 C107.656752,226.847207 95.7172714,214.736281 95.7172714,199.803769 C95.7172714,184.871826 107.656752,172.760331 122.385495,172.760331 C137.112527,172.760331 149.052007,184.871826 149.052007,199.803769" id="Fill-168" fill="#367049"></path>
                    <path d="M123.766154,172.829901 C123.306504,172.808231 122.850277,172.760331 122.385495,172.760331 C107.656752,172.760331 95.7172714,184.871826 95.7172714,199.803769 C95.7172714,214.736281 107.656752,226.847207 122.385495,226.847207 C122.850277,226.847207 123.306504,226.799306 123.766154,226.777066 L123.766154,172.829901" id="Fill-169" fill="#3E7D51"></path>
                    <path d="M147.340012,0.545454545 L119.669229,55.8190165 L133.730738,49.3923223 L128.46587,74.9896116 L147.340012,52.9147438 L158.761674,64.8916612 L161.631347,47.0440413 L172.670918,51.1458347 L147.340012,0.545454545" id="Fill-211" fill="#D4D5CF"></path>
                    <path d="M79.8625071,62.7024793 L46.6727874,135.788876 L62.7673621,123.810248 L68.3110996,161.381033 L78.8625071,135.788876 L94.2487883,145.057686 L98.5726868,125.604818 L111.566624,136.961306" id="Fill-212" fill="#D4D5CF"></path>
                    <path d="M146.891198,53.6845785 L146.891198,1.68595041 L119.669229,56.0642231 L133.730738,49.6375289 L128.46587,75.2348182 L146.891198,53.6845785" id="Fill-213" fill="#FFFFFF"></path>
                    <path d="M79.1197055,63.2875537 L78.8625071,62.7024793 L46.6727874,135.788876 L62.7673621,123.810248 L68.3110996,161.381033 L78.8625071,135.788876 L79.1197055,135.942843 L79.1197055,63.2875537" id="Fill-214" fill="#FFFFFF"></path>
                    <rect id="Rectangle-6" fill="#1A1919" x="454" y="225" width="7" height="16"></rect>
                    <path d="M483.634617,198.855446 C483.634617,213.578678 471.858238,225.519099 457.33879,225.519099 C442.81706,225.519099 431.044673,213.578678 431.044673,198.855446 C431.044673,184.132215 442.81706,172.190083 457.33879,172.190083 C471.858238,172.190083 483.634617,184.132215 483.634617,198.855446" id="Fill-216" fill="#367049"></path>
                    <rect id="Rectangle-8" fill="#1A1919" x="564" y="231" width="8" height="10"></rect>
                    <path d="M588.420439,211.526926 C588.420439,222.857752 579.358615,232.046727 568.186738,232.046727 C557.009157,232.046727 547.953036,222.857752 547.953036,211.526926 C547.953036,200.196099 557.009157,191.008264 568.186738,191.008264 C579.358615,191.008264 588.420439,200.196099 588.420439,211.526926" id="Fill-218" fill="#367049"></path>
                    <rect id="Rectangle-3" fill="#1A1919" x="56" y="231" width="8" height="10"></rect>
                    <path d="M80.298484,211.526926 C80.298484,222.857752 71.2395116,232.046727 60.0659235,232.046727 C48.8883434,232.046727 39.829371,222.857752 39.829371,211.526926 C39.829371,200.196099 48.8883434,191.008264 60.0659235,191.008264 C71.2395116,191.008264 80.298484,200.196099 80.298484,211.526926" id="Fill-220" fill="#367049"></path>
                    <rect id="Rectangle-7" fill="#1A1919" x="542" y="226" width="7" height="15"></rect>
                    <path d="M571.63696,199.803769 C571.63696,214.736281 559.695198,226.847207 544.970448,226.847207 C530.239994,226.847207 518.298232,214.736281 518.298232,199.803769 C518.298232,184.871826 530.239994,172.760331 544.970448,172.760331 C559.695198,172.760331 571.63696,184.871826 571.63696,199.803769" id="Fill-222" fill="#367049"></path>
                    <rect id="Rectangle-2" fill="#1A1919" x="32" y="226" width="8" height="15"></rect>
                    <path d="M62.9390178,199.803769 C62.9390178,214.736281 51.0001077,226.847207 36.2725053,226.847207 C21.5420516,226.847207 9.60428203,214.736281 9.60428203,199.803769 C9.60428203,184.871826 21.5420516,172.760331 36.2725053,172.760331 C51.0001077,172.760331 62.9390178,184.871826 62.9390178,199.803769" id="Fill-224" fill="#367049"></path>
                    <path d="M458.171406,172.232851 C457.891966,172.225438 457.623932,172.190083 457.33879,172.190083 C442.81706,172.190083 431.044673,184.132215 431.044673,198.855446 C431.044673,213.578678 442.81706,225.519099 457.33879,225.519099 C457.623932,225.519099 457.891966,225.486025 458.171406,225.47519 L458.171406,172.232851" id="Fill-225" fill="#3E7D51"></path>
                    <path d="M568.403446,191.019099 C568.329309,191.019099 568.260875,191.008264 568.186738,191.008264 C557.009157,191.008264 547.953036,200.196099 547.953036,211.526926 C547.953036,222.857752 557.009157,232.046727 568.186738,232.046727 C568.260875,232.046727 568.329309,232.035322 568.403446,232.035322 L568.403446,191.019099" id="Fill-226" fill="#3E7D51"></path>
                    <path d="M60.7206103,191.041339 C60.4999101,191.033926 60.2866237,191.008264 60.0659235,191.008264 C48.8883434,191.008264 39.829371,200.196099 39.829371,211.526926 C39.829371,222.857752 48.8883434,232.046727 60.0659235,232.046727 C60.2866237,232.046727 60.4999101,232.020496 60.7206103,232.013083 L60.7206103,191.041339" id="Fill-227" fill="#3E7D51"></path>
                    <path d="M544.668197,172.760331 C530.080314,172.926843 518.298232,184.960215 518.298232,199.788372 C518.298232,214.616529 530.080314,226.649901 544.668197,226.816983 L544.668197,172.760331" id="Fill-228" fill="#3E7D51"></path>
                    <path d="M35.9343265,172.760331 C21.3624119,172.944521 9.60428203,184.968769 9.60428203,199.785521 C9.60428203,214.602273 21.3624119,226.626521 35.9343265,226.810711 L35.9343265,172.760331" id="Fill-229" fill="#3E7D51"></path>
                    <path d="M358.048232,69.2363802 C358.048232,71.5846612 359.92618,73.491 362.242106,73.491 C364.559743,73.491 366.43769,71.5846612 366.43769,69.2363802 C366.43769,66.8880992 364.559743,64.9834711 362.242106,64.9834711 C359.92618,64.9834711 358.048232,66.8880992 358.048232,69.2363802" id="Fill-230" fill="#4C402F"></path>
                    <path d="M353.485955,62.6728264 C353.485955,65.8063388 355.994067,68.3490744 359.08444,68.3490744 C362.174812,68.3490744 364.678362,65.8063388 364.678362,62.6728264 C364.678362,59.539314 362.174812,57 359.08444,57 C355.994067,57 353.485955,59.539314 353.485955,62.6728264" id="Fill-231" fill="#4C402F"></path>
                    <path d="M343.791115,41.1585124 C343.791115,45.6349587 347.371362,49.2680083 351.787647,49.2680083 C356.203931,49.2680083 359.784749,45.6349587 359.784749,41.1585124 C359.784749,36.6780744 356.203931,33.0495868 351.787647,33.0495868 C347.371362,33.0495868 343.791115,36.6780744 343.791115,41.1585124" id="Fill-232" fill="#4C402F"></path>
                    <path d="M336.947698,29.6845537 C336.947698,35.6949669 341.75805,40.573438 347.689581,40.573438 C353.619972,40.573438 358.429182,35.6949669 358.429182,29.6845537 C358.429182,23.6667273 353.619972,18.7933884 347.689581,18.7933884 C341.75805,18.7933884 336.947698,23.6667273 336.947698,29.6845537" id="Fill-233" fill="#4C402F"></path>
                </g>
            </g>
        </g>
    </g>
</svg>
