<?xml version="1.0" encoding="UTF-8" standalone="no"?>
<svg width="72px" height="92px" viewBox="0 -12 72 92" version="1.1" xmlns="http://www.w3.org/2000/svg" xmlns:xlink="http://www.w3.org/1999/xlink" xmlns:sketch="http://www.bohemiancoding.com/sketch/ns">
    <!-- Generator: Sketch Beta 3.1.1 (8761) - http://www.bohemiancoding.com/sketch -->
    <title>share</title>
    <desc>Created with Sketch Beta.</desc>
    <defs></defs>
    <g id="Page-1" stroke="none" stroke-width="1" fill="none" fill-rule="evenodd" sketch:type="MSPage">
        <g id="share" sketch:type="MSLayerGroup">
            <path d="M0,0 L0,72 L72,72 L72,0 L0,0 Z M3,3 L3,69 L69,69 L69,3 L3,3 Z" id="Rectangle-2" fill="#B5DEE1" sketch:type="MSShapeGroup"></path>
            <path d="M44.5508446,20.000001 C42.6328446,20.001001 40.7428446,20.714001 39.3008446,22.156001 L35.3948446,26.062001 L37.5198446,28.187001 L41.4258446,24.281001 C43.1418446,22.565001 45.9718446,22.560001 47.8008446,24.312001 C49.5798446,26.016001 49.5378446,28.811001 47.8008446,30.656001 C47.7908446,30.667001 47.7798446,30.676001 47.7698446,30.687001 L40.8008446,37.656001 C39.0848446,39.372001 36.2238446,39.409001 34.3948446,37.656001 L32.3008446,39.812001 C35.2718446,42.659001 40.0418446,42.665001 42.9258446,39.781001 L49.9258446,32.781001 C52.7578446,29.826001 52.9058446,25.041001 49.8948446,22.156001 C48.4088446,20.732001 46.4688446,19.999001 44.5508446,20.000001 L44.5508446,20.000001 Z M34.4568446,30.000001 C32.5388446,30.001001 30.6178446,30.714001 29.1758446,32.156001 L22.1758446,39.156001 C22.1757378,39.1663341 22.1757378,39.176668 22.1758446,39.187001 C19.3438446,42.142001 19.1958446,46.927001 22.2068446,49.812001 C25.1778446,52.659001 29.9168446,52.665001 32.8008446,49.781001 L36.8008446,45.781001 L34.6758446,43.656001 L30.6758446,47.656001 C28.9598446,49.372001 26.1298446,49.409001 24.3008446,47.656001 C22.5118446,45.941001 22.5638446,43.126001 24.3318446,41.281001 L31.3008446,34.281001 C33.0168446,32.565001 35.8778446,32.560001 37.7068446,34.312001 L39.8008446,32.156001 C38.3148446,30.732001 36.3748446,29.999001 34.4568446,30.000001 L34.4568446,30.000001 Z" id="Shape" fill="#C784A4" sketch:type="MSShapeGroup"></path>
        </g>
    </g>
</svg>