<?xml version="1.0" encoding="UTF-8" standalone="no"?>
<svg width="81px" height="92px" viewBox="0 0 81 92" version="1.1" xmlns="http://www.w3.org/2000/svg" xmlns:xlink="http://www.w3.org/1999/xlink" xmlns:sketch="http://www.bohemiancoding.com/sketch/ns">
    <!-- Generator: Sketch Beta 3.1.1 (8761) - http://www.bohemiancoding.com/sketch -->
    <title>Shape + Shape</title>
    <desc>Created with Sketch Beta.</desc>
    <defs></defs>
    <g id="Home" stroke="none" stroke-width="1" fill="none" fill-rule="evenodd" sketch:type="MSPage">
        <g id="Artboard-1" sketch:type="MSArtboardGroup" transform="translate(-410.000000, -740.000000)">
            <g id="Shape-+-Shape" sketch:type="MSLayerGroup" transform="translate(410.000000, 740.000000)">
                <path d="M40.854359,10.8694382 L40.854359,9.30337079 L49.5723077,9.30337079 C52.1169231,9.30337079 54.1876923,7.21631461 54.1876923,4.65168539 C54.1876923,2.08705618 52.1169231,0 49.5723077,0 L29.0594872,0 C26.5148718,0 24.4441026,2.08705618 24.4441026,4.65168539 C24.4441026,7.21631461 26.5148718,9.30337079 29.0594872,9.30337079 L37.7774359,9.30337079 L37.7774359,10.9293933 C16.7374359,12.1832809 0,29.8245393 0,51.3391011 C0,73.6640899 18.0205128,91.8253034 40.1712821,91.8253034 C62.3220513,91.8253034 80.3415385,73.6640899 80.3415385,51.3391011 C80.3415385,29.2456629 62.6892308,11.2395056 40.854359,10.8694382 L40.854359,10.8694382 Z M27.5210256,4.65168539 C27.5210256,3.79680899 28.2112821,3.1011236 29.0594872,3.1011236 L49.5723077,3.1011236 C50.4205128,3.1011236 51.1107692,3.79680899 51.1107692,4.65168539 C51.1107692,5.5065618 50.4205128,6.20224719 49.5723077,6.20224719 L29.0594872,6.20224719 C28.2112821,6.20224719 27.5210256,5.5065618 27.5210256,4.65168539 L27.5210256,4.65168539 Z M40.1702564,88.7241798 C19.7169231,88.7241798 3.07589744,71.9533034 3.07589744,51.3391011 C3.07589744,30.7248989 19.7158974,13.9529888 40.1702564,13.9529888 C60.6246154,13.9529888 77.2646154,30.7248989 77.2646154,51.3391011 C77.2646154,71.9533034 60.6246154,88.7241798 40.1702564,88.7241798 L40.1702564,88.7241798 Z" id="Shape" fill="#B5DEE1" sketch:type="MSShapeGroup"></path>
                <path d="M62.625641,31.1363146 L60.4502564,28.9438202 L42.6502564,46.8838202 C41.9066667,46.4827416 41.0717949,46.2346517 40.1712821,46.2346517 C37.2492308,46.2346517 34.8717949,48.6307865 34.8717949,51.5758202 C34.8717949,54.5208539 37.2492308,56.9159551 40.1712821,56.9159551 C43.0933333,56.9159551 45.4707692,54.5208539 45.4707692,51.5758202 C45.4707692,50.6682247 45.2235897,49.8267865 44.825641,49.0763146 L62.625641,31.1363146 L62.625641,31.1363146 Z M40.1712821,53.8148315 C38.945641,53.8148315 37.9487179,52.8100674 37.9487179,51.5758202 C37.9487179,50.3405393 38.945641,49.3357753 40.1712821,49.3357753 C41.3969231,49.3357753 42.3938462,50.3405393 42.3938462,51.5758202 C42.3938462,52.8100674 41.3969231,53.8148315 40.1712821,53.8148315 L40.1712821,53.8148315 Z" id="Shape" fill="#C784A4" sketch:type="MSShapeGroup"></path>
            </g>
        </g>
    </g>
</svg>